<?xml version="1.0" encoding="utf-8"?>
<!-- Generator: Adobe Illustrator 23.0.3, SVG Export Plug-In . SVG Version: 6.00 Build 0)  -->
<svg version="1.2" baseProfile="tiny" id="Layer_1" xmlns="http://www.w3.org/2000/svg" xmlns:xlink="http://www.w3.org/1999/xlink"
	 x="0px" y="0px" viewBox="0 0 890.58 890.58" xml:space="preserve">
<rect x="-568.47" y="-501.69" display="none" fill="#00112B" width="2040.84" height="2040.84"/>
<rect x="0.5" y="0.5" display="none" fill="#FFFFFF" stroke="#000000" stroke-miterlimit="10" width="889.58" height="889.58"/>
<g>
	<linearGradient id="SVGID_1_" gradientUnits="userSpaceOnUse" x1="438.0175" y1="18.7623" x2="438.0175" y2="864.7421">
		<stop  offset="0" style="stop-color:#07D2BE"/>
		<stop  offset="0.5" style="stop-color:#02A0D0"/>
		<stop  offset="1" style="stop-color:#027FD9"/>
	</linearGradient>
	<path fill="url(#SVGID_1_)" d="M799.02,620.31l-58.15-47.13l58.28-47.26c12.21-9.93,12.21-28.71,0-38.64L501.84,245.49l-5.26,23.38
		l-9.79,4.97l0.28,0.81l-0.99-0.45l-15.28,7.77l252.49,205.33c23.7,21.42-2.46,42.29-20.31,55.04
		c-36.82-29.96-343.41-279.39-370.84-301.7l-37.93,30.76c26.11,21.22,335.54,272.95,370.84,301.67
		C608.7,619.03,492.26,713.6,437.51,758.49c-0.09-0.03-6.35-5.2-6.44-5.25h-0.13c-14.45-11.78-144.07-117.38-162.08-131.96
		c-4.43-3.58-9.93-5.61-15.67-5.61l-160.54,0.1c-23.45,0.13-33.86,29.44-15.67,44.15l262.93,214.01
		c23.18,21.35,58.24-25.89,75.7-36.14l-38.03-30.72c-9.96,10.25-25.69,15.23-37.68,5.12c0,0-182.55-148.56-182.55-148.56
		c12.74,2.08,85.54-5.23,94.51,5.51c19.16,15.6,105.17,85.56,122.48,99.77h0.13c40.75,33.18,88.42,71.84,129.05,105.02
		c9.1,7.4,22.14,7.4,31.37,0l264.12-215.07C811.23,648.92,811.23,630.24,799.02,620.31z M723.19,658.95
		c-5.92,3.6-187.36,154.81-193.91,156.59c-19.84,10.35-39.56-16.66-53.96-26.33c53.41-43.35,172.92-140.78,227.66-185.27
		C720.93,616.69,746.8,637.51,723.19,658.95z"/>
	<linearGradient id="SVGID_2_" gradientUnits="userSpaceOnUse" x1="468.1012" y1="18.7619" x2="468.1012" y2="864.742">
		<stop  offset="0" style="stop-color:#07D2BE"/>
		<stop  offset="0.5" style="stop-color:#02A0D0"/>
		<stop  offset="1" style="stop-color:#027FD9"/>
	</linearGradient>
	<path fill="url(#SVGID_2_)" d="M468.1,218.93c32.85-0.46,32.85,51.11,0,50.65C435.25,270.03,435.25,218.47,468.1,218.93
		 M468.1,193.3c-66.64,0.3-66.63,101.62,0,101.91C534.74,294.91,534.73,193.59,468.1,193.3L468.1,193.3z"/>
	<linearGradient id="SVGID_3_" gradientUnits="userSpaceOnUse" x1="465.8806" y1="18.7618" x2="465.8806" y2="864.7418">
		<stop  offset="0" style="stop-color:#07D2BE"/>
		<stop  offset="0.5" style="stop-color:#02A0D0"/>
		<stop  offset="1" style="stop-color:#027FD9"/>
	</linearGradient>
	<path fill="url(#SVGID_3_)" d="M826.91,229.75L563.98,15.73c-23.16-21.31-58.25,25.86-75.7,36.14L526.3,82.6
		c9.96-10.25,25.69-15.23,37.68-5.12c0,0,182.55,148.56,182.55,148.56c-12.74-2.08-85.54,5.23-94.51-5.51
		c-19.16-15.6-105.17-85.56-122.48-99.77h-0.13c-40.75-33.17-88.41-71.84-129.05-105.02c-9.1-7.4-22.14-7.4-31.36,0L104.87,230.8
		c-12.21,9.93-12.21,28.61,0,38.54l58.15,47.13l-58.28,47.26c-12.21,9.93-12.21,28.71,0,38.64l291.16,236.8l30.44-36.97
		L180.61,402.37c-23.7-21.42,2.46-42.29,20.31-55.04c36.82,29.96,343.41,279.39,370.84,301.7l37.93-30.76
		c-26.11-21.22-335.54-272.95-370.84-301.67c56.34-45.98,172.78-140.54,227.53-185.43c0.09,0.03,6.35,5.2,6.44,5.25h0.13
		c14.25,11.67,144.22,117.47,162.08,131.96c4.43,3.58,9.93,5.61,15.67,5.61l160.54-0.1C834.69,273.77,845.11,244.45,826.91,229.75z
		 M406.8,118.13c-40.3,32.8-163.71,133.3-205.87,167.59c-17.9-12.79-43.87-33.5-20.21-55.01c0,0,188.28-153.24,188.28-153.24
		c20.88-17.98,43.84,11.63,59.59,22.97L406.8,118.13z"/>
	<linearGradient id="SVGID_4_" gradientUnits="userSpaceOnUse" x1="435.7978" y1="18.7634" x2="435.7978" y2="864.7435">
		<stop  offset="0" style="stop-color:#07D2BE"/>
		<stop  offset="0.5" style="stop-color:#02A0D0"/>
		<stop  offset="1" style="stop-color:#027FD9"/>
	</linearGradient>
	<path fill="url(#SVGID_4_)" d="M435.8,620.08c32.85-0.46,32.85,51.11,0,50.65C402.95,671.18,402.95,619.62,435.8,620.08
		 M435.8,594.45c-66.64,0.3-66.63,101.62,0,101.91C502.44,696.06,502.43,594.74,435.8,594.45L435.8,594.45z"/>
</g>
</svg>
