<?xml version="1.0" encoding="utf-8"?>
<!-- Generator: Adobe Illustrator 23.0.3, SVG Export Plug-In . SVG Version: 6.00 Build 0)  -->
<svg version="1.2" baseProfile="tiny" id="Layer_1" xmlns="http://www.w3.org/2000/svg" xmlns:xlink="http://www.w3.org/1999/xlink"
	 x="0px" y="0px" viewBox="0 0 768.44 869.29" xml:space="preserve">
<rect x="-636.2" y="-511.87" display="none" fill="#00112B" width="2040.84" height="2040.84"/>
<g>
	<linearGradient id="SVGID_1_" gradientUnits="userSpaceOnUse" x1="370.29" y1="8.5782" x2="370.29" y2="854.5581">
		<stop  offset="0" style="stop-color:#07D2BE"/>
		<stop  offset="0.5" style="stop-color:#02A0D0"/>
		<stop  offset="1" style="stop-color:#027FD9"/>
	</linearGradient>
	<path fill="url(#SVGID_1_)" d="M731.3,610.13L673.15,563l58.28-47.26c12.21-9.93,12.21-28.71,0-38.64L434.11,235.3l-5.26,23.38
		l-9.79,4.97l0.28,0.81l-0.99-0.45l-15.28,7.77l252.49,205.33c23.7,21.42-2.46,42.29-20.31,55.04
		c-36.82-29.96-343.41-279.39-370.84-301.7l-37.93,30.76c26.11,21.22,335.54,272.95,370.84,301.67
		c-56.34,45.98-172.78,140.54-227.53,185.43c-0.09-0.03-6.35-5.2-6.44-5.25h-0.13c-14.45-11.78-144.07-117.38-162.08-131.96
		c-4.43-3.58-9.93-5.61-15.67-5.61l-160.54,0.1c-23.45,0.13-33.86,29.44-15.67,44.15L272.2,863.74
		c23.18,21.35,58.24-25.89,75.7-36.14l-38.03-30.72c-9.96,10.25-25.69,15.23-37.68,5.12c0,0-182.55-148.56-182.55-148.56
		c12.74,2.08,85.54-5.23,94.51,5.51c19.16,15.6,105.17,85.56,122.48,99.77h0.13c40.75,33.18,88.42,71.84,129.05,105.02
		c9.1,7.4,22.14,7.4,31.36,0L731.3,648.67C743.5,638.74,743.5,620.06,731.3,610.13z M655.46,648.77
		c-5.92,3.6-187.36,154.81-193.91,156.59c-19.84,10.35-39.56-16.66-53.96-26.33c53.41-43.35,172.92-140.78,227.66-185.27
		C653.2,606.5,679.07,627.33,655.46,648.77z"/>
	<linearGradient id="SVGID_2_" gradientUnits="userSpaceOnUse" x1="400.3737" y1="8.5779" x2="400.3737" y2="854.5579">
		<stop  offset="0" style="stop-color:#07D2BE"/>
		<stop  offset="0.5" style="stop-color:#02A0D0"/>
		<stop  offset="1" style="stop-color:#027FD9"/>
	</linearGradient>
	<path fill="url(#SVGID_2_)" d="M400.37,208.74c32.85-0.46,32.85,51.11,0,50.65C367.52,259.85,367.52,208.29,400.37,208.74
		 M400.37,183.11c-66.64,0.3-66.63,101.62,0,101.91C467.01,284.73,467.01,183.4,400.37,183.11L400.37,183.11z"/>
	<linearGradient id="SVGID_3_" gradientUnits="userSpaceOnUse" x1="398.153" y1="8.5777" x2="398.153" y2="854.5577">
		<stop  offset="0" style="stop-color:#07D2BE"/>
		<stop  offset="0.5" style="stop-color:#02A0D0"/>
		<stop  offset="1" style="stop-color:#027FD9"/>
	</linearGradient>
	<path fill="url(#SVGID_3_)" d="M759.18,219.56L496.25,5.55c-23.16-21.31-58.25,25.86-75.7,36.14l38.03,30.72
		c9.96-10.25,25.69-15.23,37.68-5.12c0,0,182.55,148.56,182.55,148.56c-12.74-2.08-85.54,5.23-94.51-5.51
		c-19.16-15.6-105.17-85.56-122.48-99.77h-0.13C420.93,77.4,373.27,38.73,332.63,5.55c-9.1-7.4-22.14-7.4-31.36,0L37.15,220.62
		c-12.21,9.93-12.21,28.61,0,38.54l58.15,47.13l-58.28,47.26c-12.21,9.93-12.21,28.71,0,38.64l291.16,236.8l30.44-36.97
		L112.88,392.18c-23.7-21.42,2.46-42.29,20.31-55.04c36.82,29.96,343.41,279.39,370.84,301.7l37.93-30.76
		c-26.11-21.22-335.54-272.95-370.84-301.67c56.34-45.98,172.78-140.54,227.53-185.43c0.09,0.03,6.35,5.2,6.44,5.25h0.13
		C419.48,137.9,549.44,243.7,567.31,258.2c4.43,3.58,9.93,5.61,15.67,5.61l160.54-0.1C766.97,263.58,777.38,234.27,759.18,219.56z
		 M339.07,107.94c-40.3,32.8-163.71,133.3-205.87,167.59c-17.9-12.79-43.87-33.5-20.21-55.01c0,0,188.28-153.24,188.28-153.24
		c20.88-17.98,43.84,11.63,59.59,22.97L339.07,107.94z"/>
	<linearGradient id="SVGID_4_" gradientUnits="userSpaceOnUse" x1="368.0703" y1="8.5794" x2="368.0703" y2="854.5595">
		<stop  offset="0" style="stop-color:#07D2BE"/>
		<stop  offset="0.5" style="stop-color:#02A0D0"/>
		<stop  offset="1" style="stop-color:#027FD9"/>
	</linearGradient>
	<path fill="url(#SVGID_4_)" d="M368.07,609.9c32.85-0.46,32.85,51.11,0,50.65C335.22,661,335.22,609.44,368.07,609.9
		 M368.07,584.26c-66.64,0.3-66.63,101.62,0,101.91C434.71,685.88,434.7,584.56,368.07,584.26L368.07,584.26z"/>
</g>
</svg>
