<?xml version="1.0" encoding="utf-8"?>
<!-- Generator: Adobe Illustrator 23.0.3, SVG Export Plug-In . SVG Version: 6.00 Build 0)  -->
<svg version="1.2" viewBox="0 0 768.44 869.29" baseProfile="tiny-ps" xmlns="http://www.w3.org/2000/svg">
  <title>softsite</title>
<rect x="-636.2" y="-511.87" width="2040.8" height="2040.8" fill="#00112B" />

	<linearGradient id="SVGID_1_" x1="370.29" x2="370.29" y1="8.5782" y2="854.56" gradientUnits="userSpaceOnUse">
		<stop stop-color="#07D2BE" offset="0" />
		<stop stop-color="#02A0D0" offset=".5" />
		<stop stop-color="#027FD9" offset="1" />
	</linearGradient>
	<path d="m731.3 610.13-58.15-47.13 58.28-47.26c12.21-9.93 12.21-28.71 0-38.64l-297.32-241.8-5.26 23.38-9.79 4.97 0.28 0.81-0.99-0.45-15.28 7.77 252.49 205.33c23.7 21.42-2.46 42.29-20.31 55.04-36.82-29.96-343.41-279.39-370.84-301.7l-37.93 30.76c26.11 21.22 335.54 272.95 370.84 301.67-56.34 45.98-172.78 140.54-227.53 185.43-0.09-0.03-6.35-5.2-6.44-5.25h-0.13c-14.45-11.78-144.07-117.38-162.08-131.96-4.43-3.58-9.93-5.61-15.67-5.61l-160.54 0.1c-23.45 0.13-33.86 29.44-15.67 44.15l262.94 214c23.18 21.35 58.24-25.89 75.7-36.14l-38.03-30.72c-9.96 10.25-25.69 15.23-37.68 5.12l-182.55-148.56c12.74 2.08 85.54-5.23 94.51 5.51 19.16 15.6 105.17 85.56 122.48 99.77h0.13c40.75 33.18 88.42 71.84 129.05 105.02 9.1 7.4 22.14 7.4 31.36 0l264.13-215.07c12.2-9.93 12.2-28.61 0-38.54zm-75.84 38.64c-5.92 3.6-187.36 154.81-193.91 156.59-19.84 10.35-39.56-16.66-53.96-26.33 53.41-43.35 172.92-140.78 227.66-185.27 17.95 12.74 43.82 33.57 20.21 55.01z" fill="url(#SVGID_1_)" />
	<linearGradient id="SVGID_2_" x1="400.37" x2="400.37" y1="8.5779" y2="854.56" gradientUnits="userSpaceOnUse">
		<stop stop-color="#07D2BE" offset="0" />
		<stop stop-color="#02A0D0" offset=".5" />
		<stop stop-color="#027FD9" offset="1" />
	</linearGradient>
	<path d="m400.37 208.74c32.85-0.46 32.85 51.11 0 50.65-32.85 0.46-32.85-51.1 0-50.65m0-25.63c-66.64 0.3-66.63 101.62 0 101.91 66.64-0.29 66.64-101.62 0-101.91z" fill="url(#SVGID_2_)" />
	<linearGradient id="SVGID_3_" x1="398.15" x2="398.15" y1="8.5777" y2="854.56" gradientUnits="userSpaceOnUse">
		<stop stop-color="#07D2BE" offset="0" />
		<stop stop-color="#02A0D0" offset=".5" />
		<stop stop-color="#027FD9" offset="1" />
	</linearGradient>
	<path d="m759.18 219.56-262.93-214.01c-23.16-21.31-58.25 25.86-75.7 36.14l38.03 30.72c9.96-10.25 25.69-15.23 37.68-5.12l182.55 148.56c-12.74-2.08-85.54 5.23-94.51-5.51-19.16-15.6-105.17-85.56-122.48-99.77h-0.13c-40.76-33.17-88.42-71.84-129.06-105.02-9.1-7.4-22.14-7.4-31.36 0l-264.12 215.07c-12.21 9.93-12.21 28.61 0 38.54l58.15 47.13-58.28 47.26c-12.21 9.93-12.21 28.71 0 38.64l291.16 236.8 30.44-36.97-245.74-199.84c-23.7-21.42 2.46-42.29 20.31-55.04 36.82 29.96 343.41 279.39 370.84 301.7l37.93-30.76c-26.11-21.22-335.54-272.95-370.84-301.67 56.34-45.98 172.78-140.54 227.53-185.43 0.09 0.03 6.35 5.2 6.44 5.25h0.13c14.26 11.67 144.22 117.47 162.09 131.97 4.43 3.58 9.93 5.61 15.67 5.61l160.54-0.1c23.45-0.13 33.86-29.44 15.66-44.15zm-420.11-111.62c-40.3 32.8-163.71 133.3-205.87 167.59-17.9-12.79-43.87-33.5-20.21-55.01l188.28-153.24c20.88-17.98 43.84 11.63 59.59 22.97l-21.79 17.69z" fill="url(#SVGID_3_)" />
	<linearGradient id="SVGID_4_" x1="368.07" x2="368.07" y1="8.5794" y2="854.56" gradientUnits="userSpaceOnUse">
		<stop stop-color="#07D2BE" offset="0" />
		<stop stop-color="#02A0D0" offset=".5" />
		<stop stop-color="#027FD9" offset="1" />
	</linearGradient>
	<path d="m368.07 609.9c32.85-0.46 32.85 51.11 0 50.65-32.85 0.45-32.85-51.11 0-50.65m0-25.64c-66.64 0.3-66.63 101.62 0 101.91 66.64-0.29 66.63-101.61 0-101.91z" fill="url(#SVGID_4_)" />

</svg>