<?xml version="1.0" encoding="utf-8"?>
<!-- Generator: Adobe Illustrator 23.0.3, SVG Export Plug-In . SVG Version: 6.00 Build 0)  -->
<svg version="1.2" viewBox="0 0 768.44 869.29" baseProfile="tiny-ps" xmlns="http://www.w3.org/2000/svg">
  <title>softsite</title>
<rect x="-636.2" y="-511.87" width="2040.8" height="2040.8" fill="#00112B" />
<g stroke-width=".77494">
	<linearGradient id="SVGID_1_" x1="370.29" x2="370.29" y1="8.5782" y2="854.56" gradientUnits="userSpaceOnUse">
		<stop stop-color="#07D2BE" offset="0" />
		<stop stop-color="#02A0D0" offset=".5" />
		<stop stop-color="#027FD9" offset="1" />
	</linearGradient>
	<path d="m652.28 556.35-45.063-36.523 45.163-36.623c9.462-7.6949 9.462-22.248 0-29.944l-230.4-187.38-4.0764 18.118-7.5864 3.8513 0.21681 0.62755-0.76714-0.34872-11.841 6.0213 195.66 159.12c18.366 16.599-1.9064 32.772-15.739 42.653-28.533-23.217-266.12-216.51-287.38-233.8l-29.393 23.837c20.234 16.444 260.02 211.52 287.38 233.78-43.66 35.632-133.89 108.91-176.32 143.7-0.0703-0.0234-4.9211-4.0297-4.9905-4.0685h-0.10104c-11.198-9.1287-111.65-90.962-125.6-102.26-3.4332-2.7743-7.6951-4.3474-12.144-4.3474l-124.41 0.0783c-18.172 0.10018-26.239 22.813-12.143 34.213l203.76 165.84c17.963 16.545 45.132-20.063 58.663-28.006l-29.471-23.806c-7.7186 7.943-19.908 11.802-29.2 3.9676l-141.46-115.12c9.8728 1.6118 66.288-4.0529 73.239 4.27 14.847 12.089 81.5 66.303 94.914 77.315h0.1006c31.579 25.713 68.52 55.672 100.01 81.384 7.0517 5.7344 17.157 5.7344 24.302 0l204.68-166.67c9.4544-7.6951 9.4544-22.171 0-29.866zm-58.771 29.944c-4.5876 2.7897-145.19 119.97-150.27 121.35-15.375 8.0207-30.657-12.911-41.816-20.404 41.389-33.594 134-109.1 176.42-143.57 13.91 9.8726 33.958 26.015 15.661 42.629z" fill="url(#SVGID_1_)" />
	<linearGradient id="SVGID_2_" x1="400.37" x2="400.37" y1="8.5779" y2="854.56" gradientUnits="userSpaceOnUse">
		<stop stop-color="#07D2BE" offset="0" />
		<stop stop-color="#02A0D0" offset=".5" />
		<stop stop-color="#027FD9" offset="1" />
	</linearGradient>
	<path d="m395.83 245.3c25.456-0.35647 25.456 39.607 0 39.25-25.457 0.35646-25.457-39.599 0-39.25m0-19.862c-51.642 0.23244-51.634 78.749 0 78.974 51.642-0.22462 51.642-78.749 0-78.974z" fill="url(#SVGID_2_)" />
	<linearGradient id="SVGID_3_" x1="398.15" x2="398.15" y1="8.5777" y2="854.56" gradientUnits="userSpaceOnUse">
		<stop stop-color="#07D2BE" offset="0" />
		<stop stop-color="#02A0D0" offset=".5" />
		<stop stop-color="#027FD9" offset="1" />
	</linearGradient>
	<path d="m673.89 253.68-203.75-165.84c-17.947-16.514-45.14 20.04-58.663 28.006l29.471 23.806c7.7186-7.9431 19.908-11.802 29.2-3.9677l141.46 115.12c-9.8727-1.6119-66.288 4.053-73.239-4.2698-14.848-12.089-81.5-66.304-94.914-77.316h-0.1006c-31.587-25.705-68.52-55.671-100.01-81.384-7.0517-5.7345-17.157-5.7345-24.302 0l-204.68 166.67c-9.462 7.6952-9.462 22.171 0 29.866l45.063 36.523-45.163 36.624c-9.462 7.6952-9.462 22.248 0 29.943l225.63 183.51 23.589-28.649-190.43-154.86c-18.366-16.599 1.9063-32.772 15.739-42.652 28.533 23.217 266.12 216.51 287.38 233.8l29.393-23.837c-20.234-16.444-260.02-211.52-287.38-233.78 43.66-35.632 133.89-108.91 176.32-143.7 0.0703 0.0234 4.9211 4.0295 4.9906 4.0681h0.10104c11.05 9.0435 111.76 91.032 125.61 102.27 3.4332 2.7741 7.6952 4.3474 12.143 4.3474l124.41-0.0781c18.172-0.10061 26.24-22.814 12.136-34.213zm-325.56-86.499c-31.23 25.418-126.87 103.3-159.54 129.87-13.871-9.9112-33.997-25.96-15.661-42.629l145.9-118.75c16.181-13.933 33.973 9.0125 46.178 17.8z" fill="url(#SVGID_3_)" />
	<linearGradient id="SVGID_4_" x1="368.07" x2="368.07" y1="8.5794" y2="854.56" gradientUnits="userSpaceOnUse">
		<stop stop-color="#07D2BE" offset="0" />
		<stop stop-color="#02A0D0" offset=".5" />
		<stop stop-color="#027FD9" offset="1" />
	</linearGradient>
	<path d="m370.8 556.17c25.457-0.35647 25.457 39.607 0 39.251-25.456 0.34863-25.456-39.607 0-39.251m0-19.869c-51.642 0.23245-51.634 78.749 0 78.974 51.642-0.2249 51.634-78.741 0-78.974z" fill="url(#SVGID_4_)" />
</g>
</svg>