<svg id="Layer_1" data-name="Layer 1" xmlns="http://www.w3.org/2000/svg" xmlns:xlink="http://www.w3.org/1999/xlink" viewBox="0 0 768.44 869.29"><defs><style>.cls-1{fill:url(#linear-gradient);}.cls-2{fill:url(#linear-gradient-2);}.cls-3{fill:url(#linear-gradient-3);}.cls-4{fill:url(#linear-gradient-4);}</style><linearGradient id="linear-gradient" x1="370.29" y1="8.58" x2="370.29" y2="854.56" gradientUnits="userSpaceOnUse"><stop offset="0" stop-color="#07d2be"/><stop offset="0.5" stop-color="#02a0d0"/><stop offset="1" stop-color="#027fd9"/></linearGradient><linearGradient id="linear-gradient-2" x1="400.37" y1="8.58" x2="400.37" y2="854.56" xlink:href="#linear-gradient"/><linearGradient id="linear-gradient-3" x1="398.15" y1="8.58" x2="398.15" y2="854.56" xlink:href="#linear-gradient"/><linearGradient id="linear-gradient-4" x1="368.07" y1="8.58" x2="368.07" y2="854.56" xlink:href="#linear-gradient"/></defs><title>softsite icon</title><path class="cls-1" d="M731.3,610.13,673.15,563l58.28-47.26a25,25,0,0,0,0-38.63L434.11,235.3l-5.26,23.38-9.79,5,.28.82-1-.46-15.28,7.77L655.56,477.11c23.7,21.42-2.46,42.29-20.31,55L264.41,230.45,226.48,261.2,597.32,562.87c-56.34,46-172.79,140.54-227.54,185.44-.08,0-6.35-5.2-6.44-5.26h-.13c-14.45-11.78-144.07-117.38-162.07-132a24.92,24.92,0,0,0-15.67-5.61l-160.54.1C1.48,605.71-8.94,635,9.26,649.73l262.94,214c23.18,21.35,58.23-25.89,75.7-36.14l-38-30.72c-10,10.25-25.69,15.23-37.67,5.12L89.64,653.44c12.74,2.08,85.55-5.23,94.52,5.51,19.16,15.6,105.16,85.56,122.48,99.77h.12c40.75,33.18,88.42,71.84,129.05,105a24.94,24.94,0,0,0,31.37,0L731.3,648.67A24.87,24.87,0,0,0,731.3,610.13Zm-75.84,38.64c-5.92,3.6-187.36,154.8-193.91,156.59-19.84,10.35-39.56-16.66-54-26.33C461,735.68,580.51,638.25,635.25,593.76,653.2,606.5,679.07,627.33,655.46,648.77Z"/><path class="cls-2" d="M400.37,208.74c32.85-.45,32.85,51.11,0,50.65-32.85.46-32.85-51.1,0-50.65m0-25.63c-66.64.3-66.63,101.62,0,101.91,66.63-.29,66.63-101.62,0-101.91Z"/><path class="cls-3" d="M759.18,219.56,496.25,5.55C473.09-15.76,438,31.41,420.54,41.69l38,30.72c10-10.25,25.69-15.23,37.68-5.12L678.8,215.85c-12.74-2.08-85.54,5.23-94.51-5.51-19.16-15.6-105.17-85.56-122.48-99.77h-.13c-40.75-33.17-88.41-71.84-129-105a24.92,24.92,0,0,0-31.36,0L37.15,220.62a24.85,24.85,0,0,0,0,38.54l58.14,47.13L37,353.55a25,25,0,0,0,0,38.63L328.18,629l30.44-37L112.88,392.18c-23.7-21.42,2.46-42.29,20.32-55L504,638.84,542,608.09,171.13,306.42c56.34-46,172.78-140.54,227.53-185.44.09,0,6.36,5.2,6.44,5.26h.13c14.25,11.66,144.21,117.46,162.08,132A24.93,24.93,0,0,0,583,263.81l160.55-.1C767,263.58,777.38,234.27,759.18,219.56ZM339.07,107.94c-40.3,32.8-163.71,133.3-205.87,167.59-17.9-12.78-43.87-33.49-20.22-55L301.27,67.29c20.87-18,43.84,11.63,59.59,23Z"/><path class="cls-4" d="M368.07,609.89c32.85-.45,32.85,51.11,0,50.66-32.85.45-32.85-51.11,0-50.66m0-25.63c-66.64.3-66.63,101.63,0,101.92,66.64-.3,66.63-101.62,0-101.92Z"/></svg>